<svg xmlns="http://www.w3.org/2000/svg" viewBox="0 0 532 532" fill="currentColor">
<path d="M0 0 C1.1078334 0.43845245 2.21566681 0.87690491 3.35707092 1.3286438 C6.97846527 2.76398793 10.5946109 4.21209736 14.2109375 5.66015625 C16.72027657 6.65827343 19.23080615 7.6533763 21.74145508 8.64819336 C25.58051786 10.17007599 29.41922644 11.69282127 33.25611877 13.22016907 C44.59963316 17.73565891 55.96422811 22.19634105 67.33685303 26.63796997 C71.09906759 28.10769133 74.86019181 29.58018862 78.62103271 31.05342102 C80.32279945 31.71858724 82.02544463 32.38151151 83.72906494 33.04191589 C87.33270566 34.43941093 90.92331355 35.85234933 94.48291016 37.35888672 C95.61647949 37.8282666 96.75004883 38.29764648 97.91796875 38.78125 C98.86003174 39.18529053 99.80209473 39.58933105 100.77270508 40.00561523 C107.2582257 41.65865473 113.12253694 38.96191709 119.05859375 36.5390625 C119.87811523 36.21204346 120.69763672 35.88502441 121.54199219 35.5480957 C123.31678863 34.83890688 125.09019295 34.12622627 126.86233521 33.41043091 C130.67509357 31.87050168 134.49457075 30.34756457 138.31358337 28.82322693 C140.32424824 28.02038673 142.33454751 27.21663036 144.34449768 26.41200256 C157.36483256 21.20139615 170.42711948 16.09777411 183.49462891 11.00683594 C185.38183796 10.27148955 187.26904503 9.53613809 189.15625 8.80078125 C190.51431259 8.27191315 190.51431259 8.27191315 191.89981079 7.73236084 C196.63118956 5.88681793 201.35365119 4.02194602 206.06269836 2.12013245 C207.93429192 1.36485312 209.80876075 0.61671057 211.68334961 -0.13110352 C213.81703111 -0.9831101 215.94602008 -1.84702801 218.06860352 -2.72631836 C219.43650024 -3.26784546 219.43650024 -3.26784546 220.83203125 -3.8203125 C221.59185303 -4.1299292 222.3516748 -4.4395459 223.13452148 -4.75854492 C228.97854134 -5.99532833 234.4473788 -3.80412116 239.83203125 -1.671875 C240.53447464 -1.4005928 241.23691803 -1.12931061 241.96064758 -0.84980774 C244.31781732 0.06288286 246.67057742 0.98641777 249.0234375 1.91015625 C250.7273304 2.57296505 252.43143868 3.23522037 254.13574219 3.89697266 C258.90916495 5.75345732 263.67824187 7.62087441 268.44622803 9.49127197 C271.69878893 10.76691623 274.95210329 12.04062353 278.20556641 13.31396484 C292.37256991 18.86008525 306.53152642 24.42647034 320.68603516 30.00439453 C326.295959 32.2150577 331.90731608 34.42205339 337.51919556 36.62774658 C341.57351792 38.22182967 345.62693261 39.81820958 349.68005371 41.41534424 C351.56538306 42.15784494 353.45104062 42.89951283 355.33703613 43.64031982 C357.9092653 44.65097455 360.48019209 45.66487013 363.05078125 46.6796875 C363.80828171 46.97648911 364.56578217 47.27329071 365.34623718 47.5790863 C370.47169241 49.60841116 370.47169241 49.60841116 371.5859375 50.72265625 C371.68406222 52.95352963 371.70964854 55.18758687 371.70898533 57.4206171 C371.71013917 58.13257627 371.71129302 58.84453543 371.71248183 59.57806912 C371.71515531 61.99396845 371.71062037 64.40980282 371.70619202 66.82569885 C371.70662757 68.56310302 371.70750218 70.30050713 371.70878118 72.03791088 C371.71102928 76.83572241 371.70700059 81.63351184 371.70200312 86.43132055 C371.69770329 91.59631374 371.69914471 96.76130558 371.6999054 101.92630005 C371.70043093 110.88282634 371.69728108 119.83934537 371.69166756 128.79586983 C371.68355651 141.74566108 371.68093774 154.69544881 371.67967957 167.64524233 C371.67748842 188.65306393 371.67082665 209.66088167 371.66137695 230.66870117 C371.65220445 251.08146139 371.64512282 271.49422056 371.64086914 291.90698242 C371.64060642 293.16424484 371.64034369 294.42150725 371.64007301 295.71686853 C371.63876802 302.02389188 371.6375043 308.33091525 371.63626111 314.63793862 C371.62588655 366.99951384 371.60826655 419.36108486 371.5859375 471.72265625 C370.48013871 472.14749141 369.37433992 472.57232656 368.23503208 473.01003551 C364.06207062 474.61336697 359.88932126 476.21724983 355.71662998 477.82128429 C353.92380518 478.51038395 352.1309258 479.19934164 350.33798695 479.88814449 C336.31246644 485.27656582 322.31061247 490.72061454 308.33276367 496.23165894 C304.86571169 497.59728224 301.39690848 498.95838077 297.92773438 500.31860352 C287.38911985 504.45318868 276.8571281 508.60114408 266.35890198 512.8374176 C262.10670174 514.55173321 257.84944963 516.25327524 253.59158325 517.95346069 C251.60688661 518.75026937 249.62477712 519.55355637 247.64547729 520.36367798 C244.92351103 521.47744704 242.19359505 522.56903206 239.4609375 523.65625 C238.6739296 523.98525299 237.88692169 524.31425598 237.07606506 524.65322876 C227.46930787 528.4128284 220.11771364 525.05719938 210.99609375 521.375 C209.87481583 520.93116974 208.7535379 520.48733948 207.59828186 520.03005981 C204.57141033 518.830243 201.54788215 517.6224386 198.52561188 516.41109085 C195.37581999 515.15106528 192.22175292 513.90184463 189.06787109 512.65209961 C185.24279698 511.13573436 181.41803837 509.618603 177.59509277 508.09687805 C167.16415646 503.94493927 156.71341296 499.84546451 146.25094604 495.77371216 C143.03235637 494.52105659 139.81457637 493.26633406 136.59724426 492.01045227 C135.1171633 491.43402395 133.63621947 490.85980537 132.15434265 490.28800964 C128.31787468 488.80523678 124.50523053 487.28036968 120.70996094 485.69482422 C119.90332001 485.3642955 119.09667908 485.03376678 118.26559448 484.69322205 C116.7308434 484.06349942 115.20115746 483.42122141 113.67800903 482.76393127 C105.69724905 479.52355626 99.56759579 481.86354614 91.9375 484.9765625 C91.104534 485.30895935 90.27156799 485.6413562 89.4133606 485.98382568 C87.61598145 486.70204839 85.81999135 487.42375513 84.02526855 488.14859009 C80.18525809 489.69937636 76.33856565 491.23326285 72.49230957 492.76847839 C70.49675224 493.56527944 68.50155724 494.36298851 66.50671387 495.16157532 C54.78036501 499.85438741 43.01408934 504.44409775 31.23925781 509.01367188 C29.57093349 509.66138093 27.90263889 510.30916655 26.234375 510.95703125 C25.42432007 511.27148193 24.61426514 511.58593262 23.77966309 511.90991211 C19.04663518 513.75147378 14.32648209 515.62195893 9.61669922 517.52217102 C6.73938147 518.68199377 3.85757364 519.83039073 0.97521973 520.97763062 C-0.34787511 521.50805926 -1.66869389 522.04420792 -2.98693848 522.58657837 C-4.78223704 523.32491081 -6.58627183 524.04189253 -8.390625 524.7578125 C-9.39174316 525.16394775 -10.39286133 525.57008301 -11.42431641 525.98852539 C-17.54856303 527.4923315 -22.97942437 525.36667693 -28.66015625 523.1171875 C-29.36259964 522.8459053 -30.06504303 522.57462311 -30.78877258 522.29512024 C-33.14594232 521.38242964 -35.49870242 520.45889473 -37.8515625 519.53515625 C-39.5554554 518.87234745 -41.25956368 518.21009213 -42.96386719 517.54833984 C-47.73728995 515.69185518 -52.50636687 513.82443809 -57.27435303 511.95404053 C-60.52691393 510.67839627 -63.78022829 509.40468897 -67.03369141 508.13134766 C-81.20069491 502.58522725 -95.35965142 497.01884216 -109.51416016 491.44091797 C-115.124084 489.2302548 -120.73544108 487.02325911 -126.34732056 484.81756592 C-130.40164292 483.22348283 -134.45505761 481.62710292 -138.50817871 480.02996826 C-140.39350806 479.28746756 -142.27916562 478.54579967 -144.16516113 477.80499268 C-146.7373903 476.79433795 -149.30831709 475.78044237 -151.87890625 474.765625 C-152.63640671 474.46882339 -153.39390717 474.17202179 -154.17436218 473.8662262 C-159.29981741 471.83690134 -159.29981741 471.83690134 -160.4140625 470.72265625 C-160.51218088 468.49699255 -160.53777357 466.2681381 -160.53711033 464.04031277 C-160.53826417 463.33004198 -160.53941802 462.61977118 -160.54060683 461.88797703 C-160.5432803 459.47782105 -160.53874538 457.06773019 -160.53431702 454.65757751 C-160.53475257 452.92429815 -160.53562718 451.19101884 -160.53690618 449.45773989 C-160.53915427 444.67132991 -160.5351256 439.88494209 -160.53012812 435.09853494 C-160.52582828 429.94581181 -160.52726971 424.79309002 -160.5280304 419.6403656 C-160.52855593 410.70512023 -160.52540608 401.76988214 -160.51979256 392.8346386 C-160.51168151 379.91561643 -160.50906274 366.9965978 -160.50780457 354.07757337 C-160.50561342 333.11966605 -160.49895165 312.16176262 -160.48950195 291.20385742 C-160.48032944 270.83959981 -160.47324782 250.47534325 -160.46899414 230.11108398 C-160.46873142 228.85680857 -160.46846869 227.60253315 -160.46819801 226.31024938 C-160.46689302 220.01821009 -160.4656293 213.7261708 -160.46438611 207.4341315 C-160.45401155 155.1969704 -160.43639155 102.95981351 -160.4140625 50.72265625 C-159.16372121 50.08838162 -157.91229454 49.45624637 -156.66043091 48.82498169 C-155.96366304 48.47272585 -155.26689518 48.12047001 -154.54901314 47.75753975 C-151.19961975 46.13397437 -147.75446841 44.79729649 -144.28125 43.46484375 C-143.12217384 43.01458832 -143.12217384 43.01458832 -141.93968201 42.55523682 C-139.39080757 41.56590148 -136.83991932 40.58186768 -134.2890625 39.59765625 C-132.46621597 38.89091087 -130.6435473 38.18370661 -128.82104492 37.47607422 C-125.95525639 36.36346027 -123.0893453 35.2511719 -120.22288513 34.14028931 C-110.66577424 30.43640304 -101.12078831 26.70184521 -91.57727051 22.96310425 C-88.72268807 21.84614023 -85.86688574 20.73235026 -83.01074219 19.61938477 C-73.91974097 16.07385671 -64.84075828 12.50330113 -55.792099 8.85083008 C-51.563535 7.14560399 -47.32977996 5.45349107 -43.09555054 3.76239014 C-41.07583702 2.95143952 -39.0586983 2.13404322 -37.04434204 1.30987549 C-34.24936612 0.16679731 -31.44632814 -0.95387636 -28.640625 -2.0703125 C-27.41246819 -2.58287346 -27.41246819 -2.58287346 -26.15950012 -3.10578918 C-16.4476555 -6.90998951 -9.24110274 -3.73095157 0 0 Z M-16.4140625 18.72265625 C-16.4140625 75.48265625 -16.4140625 132.24265625 -16.4140625 190.72265625 C24.23290614 206.69539476 24.23290614 206.69539476 64.88598633 222.65258789 C66.88802087 223.43786212 68.88996798 224.22335928 70.8918457 225.0090332 C76.65788538 227.27201761 82.42495469 229.5323176 88.1942749 231.78692627 C90.40219334 232.65076696 92.60865733 233.51822671 94.81494141 234.38623047 C95.99362793 234.84658691 97.17231445 235.30694336 98.38671875 235.78125 C99.36423096 236.16466553 100.34174316 236.54808105 101.34887695 236.94311523 C103.50587512 237.83234298 103.50587512 237.83234298 105.5859375 237.72265625 C105.5859375 180.96265625 105.5859375 124.20265625 105.5859375 65.72265625 C69.3923367 51.37642309 69.3923367 51.37642309 33.1484375 37.16015625 C12.27330376 29.02043429 12.27330376 29.02043429 3.2578125 25.375 C2.0711499 24.89554932 0.8844873 24.41609863 -0.33813477 23.92211914 C-2.42920749 23.0734568 -4.51842317 22.22019553 -6.60522461 21.36108398 C-7.4844458 21.00344971 -8.36366699 20.64581543 -9.26953125 20.27734375 C-10.00840576 19.97296387 -10.74728027 19.66858398 -11.50854492 19.35498047 C-13.55400102 18.56518092 -13.55400102 18.56518092 -16.4140625 18.72265625 Z M228.5859375 18.72265625 C228.5859375 75.48265625 228.5859375 132.24265625 228.5859375 190.72265625 C249.86382152 199.42071934 249.86382152 199.42071934 271.26773071 207.76559448 C283.8186635 212.5271844 296.32617324 217.39345384 308.80078125 222.3515625 C310.61554962 223.07273254 310.61554962 223.07273254 312.46697998 223.80847168 C318.49506009 226.20571228 324.52081492 228.60866232 330.54443359 231.01708984 C332.75225738 231.89686327 334.96010144 232.7765858 337.16796875 233.65625 C338.19317123 234.06798965 339.21837372 234.47972931 340.27464294 234.90394592 C341.21115189 235.27652023 342.14766083 235.64909454 343.11254883 236.03295898 C344.34174797 236.52468849 344.34174797 236.52468849 345.59577942 237.02635193 C347.54916069 237.83273771 347.54916069 237.83273771 349.5859375 237.72265625 C349.5859375 180.96265625 349.5859375 124.20265625 349.5859375 65.72265625 C342.67016884 62.84108597 335.76826924 59.96553827 328.80078125 57.21875 C328.00141647 56.9026326 327.2020517 56.5865152 326.37846375 56.26081848 C323.760601 55.22604622 321.14205526 54.19301621 318.5234375 53.16015625 C316.66128833 52.42482303 314.79914658 51.68947102 312.93701172 50.95410156 C297.70261801 44.94087959 282.45803574 38.95357901 267.2109375 32.97265625 C265.57715652 32.33165482 265.57715652 32.33165482 263.91036987 31.67770386 C257.96533801 29.34569156 252.01897767 27.01713351 246.07043457 24.6940918 C243.81244908 23.81122202 241.55597884 22.92459447 239.29980469 22.03710938 C238.12321289 21.57755859 236.94662109 21.11800781 235.734375 20.64453125 C234.76419434 20.26393555 233.79401367 19.88333984 232.79443359 19.49121094 C230.66085607 18.61310078 230.66085607 18.61310078 228.5859375 18.72265625 Z M-28.34765625 218.02734375 C-29.23686768 218.37806442 -30.1260791 218.7287851 -31.04223633 219.09013367 C-33.9818248 220.25153018 -36.91658801 221.42465423 -39.8515625 222.59765625 C-41.90793106 223.41226973 -43.96465879 224.22597709 -46.02172852 225.03881836 C-50.31666275 226.73673745 -54.61000258 228.43860333 -58.90234375 230.14306641 C-68.2366189 233.84572494 -77.59101689 237.49683644 -86.94485474 241.14971924 C-91.53828915 242.94403634 -96.13043532 244.74164254 -100.72265625 246.5390625 C-102.46337213 247.22023215 -104.20409483 247.9013844 -105.94482422 248.58251953 C-106.82176941 248.925672 -107.6987146 249.26882446 -108.60223389 249.62237549 C-114.84602356 252.06559753 -121.08981323 254.50881958 -127.33360291 256.95204163 C-128.26000076 257.31454514 -129.18639862 257.67704865 -130.14086914 258.05053711 C-131.56526693 258.60791016 -132.98966471 259.1652832 -134.4140625 259.72265625 C-134.4140625 260.38265625 -134.4140625 261.04265625 -134.4140625 261.72265625 C-133.26147949 262.17366699 -132.10889648 262.62467773 -130.92138672 263.08935547 C-58.46240234 291.44287109 -58.46240234 291.44287109 -55.76763916 292.49835205 C-54.00728006 293.18652141 -52.24602079 293.87239297 -50.48382568 294.55584717 C-45.71090033 296.41071185 -40.96511533 298.31620088 -36.23779297 300.28466797 C-35.2075853 300.70642807 -34.17737762 301.12818817 -33.11595154 301.56272888 C-31.13707529 302.37371614 -29.16384448 303.19867164 -27.19764709 304.03993225 C-16.7515229 308.28193814 -9.858978 305.42580374 0.17578125 301.375 C1.85790207 300.70918663 1.85790207 300.70918663 3.57400513 300.02992249 C6.60094619 298.83009534 9.62454407 297.6222824 12.64686966 296.41088867 C15.79429334 295.15174261 18.94594146 293.90327152 22.09741211 292.65429688 C25.92013602 291.13867044 29.74255824 289.62231241 33.56318665 288.10140991 C44.90385198 283.58731203 56.2716622 279.14479763 67.6484375 274.72265625 C72.93169408 272.66785051 78.2131976 270.60874412 83.49102783 268.54003906 C85.65531012 267.69558874 87.82334791 266.8612834 89.99169922 266.02734375 C91.3760867 265.48856415 92.76036891 264.94951399 94.14453125 264.41015625 C95.97262329 263.70439453 95.97262329 263.70439453 97.83764648 262.984375 C100.69922721 262.01796854 100.69922721 262.01796854 101.5859375 259.72265625 C100.67158936 259.37299805 99.75724121 259.02333984 98.81518555 258.66308594 C79.04038828 251.09661013 59.29693928 243.45378127 39.58981323 235.71264648 C36.28558043 234.41492533 32.98088235 233.11839636 29.67602539 231.82226562 C27.54312764 230.98568696 25.41023368 230.14909861 23.27734375 229.3125 C22.2532692 228.91082611 21.22919464 228.50915222 20.17408752 228.0953064 C15.02733749 226.07580855 9.88263995 224.0513152 4.74147034 222.01765442 C1.73370303 220.82983824 -1.2779291 219.65190795 -4.2890625 218.47265625 C-5.29106689 218.07264404 -6.29307129 217.67263184 -7.32543945 217.26049805 C-8.21835693 216.912854 -9.11127441 216.56520996 -10.03125 216.20703125 C-10.76972168 215.91538086 -11.50819336 215.62373047 -12.26904297 215.32324219 C-18.27610586 213.64131927 -22.79815685 215.78863438 -28.34765625 218.02734375 Z M200.8359375 223.22265625 C198.36960489 224.27447096 195.90162344 225.31996106 193.42871094 226.35595703 C188.4701219 228.44154977 183.5295625 230.56394377 178.59765625 232.71191406 C169.61870366 236.60011574 160.51196016 240.13217997 151.37390137 243.62573242 C147.42251055 245.13893399 143.48043491 246.67577248 139.5390625 248.21484375 C138.46123505 248.63506805 138.46123505 248.63506805 137.3616333 249.06378174 C128.4137137 252.5595747 119.49979859 256.14110311 110.5859375 259.72265625 C110.5859375 260.38265625 110.5859375 261.04265625 110.5859375 261.72265625 C133.67881679 270.87566595 156.77268955 280.02666878 179.9309082 289.01342773 C181.59979607 289.66123391 183.26866026 290.30910109 184.9375 290.95703125 C185.74759018 291.27148697 186.55768036 291.58594269 187.39231873 291.90992737 C192.1252964 293.75152083 196.84542546 295.62197207 201.55517578 297.52217102 C204.43249353 298.68199377 207.31430136 299.83039073 210.19665527 300.97763062 C211.51975011 301.50805926 212.84056889 302.04420792 214.15881348 302.58657837 C215.95411204 303.32491081 217.75814683 304.04189253 219.5625 304.7578125 C220.56361816 305.16394775 221.56473633 305.57008301 222.59619141 305.98852539 C228.78535191 307.50827107 234.27036073 305.31938686 240.0078125 303.046875 C240.72483337 302.76976181 241.44185425 302.49264862 242.18060303 302.20713806 C244.56857881 301.28200279 246.95220596 300.34616754 249.3359375 299.41015625 C251.03818602 298.74795535 252.74066611 298.08634946 254.44335938 297.42529297 C259.14023382 295.59898152 263.83297642 293.76227314 268.5246582 291.92266846 C271.69492088 290.6799351 274.86592701 289.43911499 278.03710938 288.19873047 C289.87900196 283.56618724 301.71678307 278.92327147 313.55108643 274.27137756 C324.22473103 270.07661624 334.90486548 265.89846265 345.5859375 261.72265625 C345.5859375 261.06265625 345.5859375 260.40265625 345.5859375 259.72265625 C307.50850854 244.74531725 307.50850854 244.74531725 269.40768433 229.82763672 C267.77144147 229.18860591 266.13530745 228.54929633 264.4992981 227.90966797 C263.73132904 227.60947754 262.96335999 227.30928711 262.17211914 227 C261.4187175 226.70426086 260.66531586 226.40852173 259.88908386 226.1038208 C258.3966321 225.5251243 256.89969735 224.95784956 255.39839172 224.40252686 C251.34419747 222.88923464 247.54225147 221.20931991 243.72314453 219.16894531 C227.48415432 210.96100126 216.64637261 216.0781116 200.8359375 223.22265625 Z M-138.4140625 283.72265625 C-138.4140625 340.48265625 -138.4140625 397.24265625 -138.4140625 455.72265625 C-130.50130515 459.01963848 -122.58876287 462.26562449 -114.609375 465.390625 C-112.95570671 466.04001793 -112.95570671 466.04001793 -111.26863098 466.70252991 C-107.69262905 468.10640381 -104.11589939 469.50841118 -100.5390625 470.91015625 C-98.05149417 471.8856925 -95.56394505 472.86127763 -93.07641602 473.83691406 C-89.2737458 475.32826081 -85.47098023 476.81936336 -81.66792297 478.3097229 C-74.45607609 481.13611528 -67.24626952 483.96763135 -60.03887939 486.80537415 C-55.80584442 488.47168687 -51.57181481 490.13546156 -47.33758545 491.79873657 C-45.35982072 492.57627143 -43.38247885 493.35488282 -41.40557861 494.13461304 C-38.66869039 495.2138386 -35.93024963 496.28902903 -33.19140625 497.36328125 C-32.3991011 497.67685074 -31.60679596 497.99042023 -30.79048157 498.31349182 C-30.04872177 498.60352585 -29.30696198 498.89355988 -28.54272461 499.19238281 C-27.59362465 499.56583832 -27.59362465 499.56583832 -26.62535095 499.94683838 C-23.59936863 501.00848692 -20.49749255 501.84167624 -17.4140625 502.72265625 C-17.4140625 445.96265625 -17.4140625 389.20265625 -17.4140625 330.72265625 C-40.51962041 321.30785613 -40.51962041 321.30785613 -63.7265625 312.16015625 C-67.22038136 310.80292996 -70.71369767 309.44441225 -74.20703125 308.0859375 C-75.10180176 307.73823303 -75.99657227 307.39052856 -76.91845703 307.0322876 C-83.96137404 304.29349662 -90.99538893 301.53242382 -98.02734375 298.765625 C-101.17307753 297.5292645 -104.31888373 296.29308837 -107.46469116 295.05691528 C-109.50013238 294.25630423 -111.53515279 293.45462241 -113.56973267 292.65182495 C-116.41514237 291.52928883 -119.26209295 290.41074551 -122.109375 289.29296875 C-122.94926468 288.96036545 -123.78915436 288.62776215 -124.65449524 288.28507996 C-125.44414169 287.97589127 -126.23378815 287.66670258 -127.04736328 287.34814453 C-128.06432785 286.94754318 -128.06432785 286.94754318 -129.10183716 286.53884888 C-132.15982775 285.45940851 -135.29592203 284.61355353 -138.4140625 283.72265625 Z M105.5859375 283.72265625 C105.5859375 340.48265625 105.5859375 397.24265625 105.5859375 455.72265625 C136.13473704 467.7890271 136.13473704 467.7890271 166.7109375 479.78515625 C167.64780396 480.15131042 168.58467041 480.5174646 169.54992676 480.89471436 C173.41875039 482.40664512 177.28764381 483.91839628 181.15686035 485.42932129 C186.70457145 487.59581648 192.25065508 489.76640348 197.79525757 491.94084167 C201.18087489 493.26795471 204.56756049 494.5923243 207.95452881 495.91598511 C209.53103614 496.53275719 211.10709332 497.15068123 212.68267822 497.76980591 C214.83152153 498.61397162 216.98193837 499.45399374 219.1328125 500.29296875 C220.33776367 500.76492676 221.54271484 501.23688477 222.78417969 501.72314453 C225.40410688 502.83465746 225.40410688 502.83465746 227.5859375 502.72265625 C227.5859375 445.96265625 227.5859375 389.20265625 227.5859375 330.72265625 C206.30818486 322.02463138 206.30818486 322.02463138 184.90441895 313.67971802 C172.36316011 308.92239399 159.86673536 304.05886823 147.40625 299.09375 C146.19877106 298.61296997 144.99129211 298.13218994 143.7472229 297.63684082 C137.73369579 295.24113335 131.72293597 292.8387434 125.71533203 290.42822266 C123.51080687 289.54834054 121.30621999 288.668613 119.1015625 287.7890625 C118.0815213 287.37732285 117.0614801 286.96558319 116.01052856 286.54136658 C115.07409515 286.16879227 114.13766174 285.79621796 113.17285156 285.41235352 C112.35560608 285.08453384 111.5383606 284.75671417 110.6963501 284.41896057 C108.48150007 283.56599427 108.48150007 283.56599427 105.5859375 283.72265625 Z " transform="translate(160.4140625,5.27734375)"/>
</svg>
