<svg xmlns="http://www.w3.org/2000/svg" viewBox="0 0 410 410" fill="currentColor">
<path d="M0 0 C2.49662073 -0.00571038 4.99323885 -0.01267721 7.48985291 -0.02079773 C13.53896422 -0.03681997 19.58792589 -0.03884455 25.63704375 -0.03358483 C30.55981989 -0.02952462 35.48256549 -0.0310085 40.40534019 -0.03633308 C41.10902752 -0.03708151 41.81271485 -0.03782993 42.53772604 -0.03860103 C43.96779914 -0.04013269 45.39787223 -0.04167104 46.82794531 -0.043216 C60.20539106 -0.05690869 73.58277814 -0.05152638 86.96022251 -0.04003078 C99.16317471 -0.03010395 111.36597516 -0.04303529 123.56890396 -0.06696498 C136.13857293 -0.09142561 148.70817142 -0.10094667 161.27786368 -0.09431225 C168.31887615 -0.09083516 175.35977207 -0.09295128 182.40076637 -0.11056328 C189.02556393 -0.12693052 195.65012071 -0.12199591 202.27492714 -0.10325813 C204.69469653 -0.0995923 207.11448762 -0.10262155 209.53423691 -0.11314392 C226.0955057 -0.17961691 241.98467526 0.51183702 257.05541992 8.15405273 C257.75393066 8.49549316 258.45244141 8.83693359 259.17211914 9.1887207 C265.33062274 12.29140236 270.83096104 16.05303737 276.18041992 20.40405273 C276.80948242 20.88229492 277.43854492 21.36053711 278.08666992 21.85327148 C294.24700285 34.67135374 305.74239227 57.13799894 308.18041992 77.40405273 C308.73457922 85.66143408 308.60160322 93.95238792 308.58447266 102.22363281 C308.59018303 104.72025354 308.59714986 107.21687166 308.60527039 109.71348572 C308.62129262 115.76259703 308.62331721 121.8115587 308.61805748 127.86067656 C308.61399728 132.78345271 308.61548116 137.7061983 308.62080574 142.62897301 C308.62155416 143.33266034 308.62230258 144.03634767 308.62307369 144.76135885 C308.62460535 146.19143195 308.6261437 147.62150504 308.62768865 149.05157813 C308.64138134 162.42902387 308.63599903 175.80641095 308.62450344 189.18385532 C308.61457661 201.38680752 308.62750794 213.58960797 308.65143763 225.79253677 C308.67589827 238.36220574 308.68541933 250.93180423 308.67878491 263.50149649 C308.67530782 270.54250896 308.67742393 277.58340489 308.69503593 284.62439919 C308.71140318 291.24919674 308.70646856 297.87375353 308.68773079 304.49855995 C308.68406495 306.91832934 308.6870942 309.33812043 308.69761658 311.75786972 C308.76408957 328.31913851 308.07263564 344.20830807 300.43041992 359.27905273 C300.08897949 359.97756348 299.74753906 360.67607422 299.39575195 361.39575195 C296.29307029 367.55425555 292.53143528 373.05459385 288.18041992 378.40405273 C287.70217773 379.03311523 287.22393555 379.66217773 286.73120117 380.31030273 C273.91311892 396.47063566 251.44647371 407.96602508 231.18041992 410.40405273 C222.92303858 410.95821203 214.63208474 410.82523603 206.36083984 410.80810547 C203.86421911 410.81381584 201.36760099 410.82078267 198.87098694 410.8289032 C192.82187562 410.84492544 186.77291396 410.84695002 180.72379609 410.84169029 C175.80101995 410.83763009 170.87827436 410.83911397 165.95549965 410.84443855 C164.89996866 410.84556119 164.89996866 410.84556119 163.8231138 410.8467065 C162.3930407 410.84823816 160.96296761 410.84977651 159.53289453 410.85132147 C146.15544879 410.86501416 132.77806171 410.85963185 119.40061734 410.84813625 C107.19766514 410.83820942 94.99486469 410.85114076 82.79193588 410.87507045 C70.22226692 410.89953108 57.65266842 410.90905214 45.08297616 410.90241772 C38.0419637 410.89894063 31.00106777 410.90105675 23.96007347 410.91866875 C17.33527592 410.93503599 10.71071913 410.93010137 4.0859127 410.9113636 C1.66614331 410.90769777 -0.75364778 410.91072702 -3.17339706 410.92124939 C-19.73466585 410.98772238 -35.62383541 410.29626845 -50.69458008 402.65405273 C-51.74234619 402.14189209 -51.74234619 402.14189209 -52.8112793 401.61938477 C-58.9697829 398.5167031 -64.47012119 394.7550681 -69.81958008 390.40405273 C-70.44864258 389.92581055 -71.07770508 389.44756836 -71.72583008 388.95483398 C-87.88616301 376.13675173 -99.38155243 353.67010652 -101.81958008 333.40405273 C-102.37373937 325.14667139 -102.24076338 316.85571755 -102.22363281 308.58447266 C-102.22934319 306.08785193 -102.23631002 303.5912338 -102.24443054 301.09461975 C-102.26045278 295.04550843 -102.26247736 288.99654677 -102.25721764 282.9474289 C-102.25315744 278.02465276 -102.25464131 273.10190717 -102.2599659 268.17913246 C-102.26071432 267.47544513 -102.26146274 266.7717578 -102.26223384 266.04674662 C-102.2637655 264.61667352 -102.26530385 263.18660043 -102.26684881 261.75652734 C-102.2805415 248.3790816 -102.27515919 235.00169452 -102.2636636 221.62425015 C-102.25373676 209.42129795 -102.2666681 197.2184975 -102.29059779 185.0155687 C-102.31505842 172.44589973 -102.32457949 159.87630124 -102.31794506 147.30660897 C-102.31446798 140.26559651 -102.31658409 133.22470058 -102.33419609 126.18370628 C-102.35056333 119.55890873 -102.34562872 112.93435194 -102.32689095 106.30954552 C-102.32322511 103.88977613 -102.32625436 101.46998504 -102.33677673 99.05023575 C-102.40324973 82.48896696 -101.71179579 66.5997974 -94.06958008 51.52905273 C-93.72813965 50.83054199 -93.38669922 50.13203125 -93.03491211 49.41235352 C-89.93223045 43.25384992 -86.17059544 37.75351162 -81.81958008 32.40405273 C-81.34133789 31.77499023 -80.8630957 31.14592773 -80.37036133 30.49780273 C-60.47268671 5.41190924 -29.98052974 -0.06209264 0 0 Z M109.64526367 54.81811523 C108.75258789 55.33245117 107.85991211 55.84678711 106.94018555 56.37670898 C105.54316406 57.19461914 105.54316406 57.19461914 104.11791992 58.02905273 C103.21364258 58.55112305 102.30936523 59.07319336 101.37768555 59.61108398 C96.97737702 62.15879657 92.60187435 64.7446338 88.24682617 67.36889648 C82.60068852 70.7675748 76.8930621 74.05624916 71.18041992 77.34155273 C69.46471074 78.32983668 67.74900235 79.318122 66.03334045 80.30648804 C64.26205013 81.32675249 62.49054223 82.34663828 60.71899414 83.36645508 C57.26904638 85.35270244 53.82027163 87.34097935 50.37182617 89.32983398 C49.27016113 89.9651001 48.16849609 90.60036621 47.03344727 91.25488281 C44.85458308 92.51244213 42.67651126 93.77137541 40.49926758 95.03173828 C35.45839461 97.94820468 30.40905842 100.84476839 25.32495117 103.68530273 C24.43026123 104.18964844 23.53557129 104.69399414 22.61376953 105.21362305 C20.95181594 106.14935414 19.28488485 107.07631858 17.61230469 107.99291992 C15.75158428 109.04599348 13.95674402 110.2141296 12.18041992 111.40405273 C12.18041992 112.39405273 12.18041992 113.38405273 12.18041992 114.40405273 C14.32385146 115.93771495 16.39529552 117.23777877 18.68041992 118.52905273 C19.36112549 118.92519775 20.04183105 119.32134277 20.74316406 119.72949219 C22.88134251 120.96815939 25.02874272 122.18900542 27.18041992 123.40405273 C28.11797119 123.93409912 28.11797119 123.93409912 29.07446289 124.47485352 C31.5750279 125.88506757 34.07822566 127.29042772 36.58520508 128.68920898 C42.61834961 132.06264139 48.5892461 135.53880241 54.55541992 139.02905273 C63.39553949 144.19950136 72.24823617 149.34704461 81.11791992 154.46655273 C82.18896973 155.08546387 83.26001953 155.704375 84.36352539 156.34204102 C88.7628761 158.87946043 93.16388637 161.40447679 97.62182617 163.83764648 C98.60949982 164.43350304 98.60949982 164.43350304 99.61712646 165.04139709 C102.21964622 166.52253362 102.21964622 166.52253362 105.41702271 167.4389801 C109.57674444 169.13484292 112.63522434 170.61677179 115.18041992 174.40405273 C117.58441 182.5246003 116.86589633 191.4751622 116.70047021 199.85055351 C116.64708891 203.24852553 116.66768786 206.64605856 116.68022156 210.04431152 C116.69278946 216.46945217 116.63945528 222.89226355 116.56205004 229.31688166 C116.47711781 236.63495892 116.46624203 243.95257126 116.46138442 251.27107143 C116.4497495 266.31632124 116.34577244 281.35964763 116.18041992 296.40405273 C118.38865435 295.31089664 120.59564119 294.21533466 122.80200195 293.1184082 C123.72750603 292.66071297 123.72750603 292.66071297 124.67170715 292.19377136 C130.62147066 289.23149245 136.34410096 285.9264427 142.05541992 282.52905273 C144.13293179 281.30405397 146.21105867 280.08009765 148.28979492 278.85717773 C149.28946289 278.2687207 150.28913086 277.68026367 151.3190918 277.07397461 C155.90387116 274.398216 160.53418115 271.80550321 165.18383789 269.24438477 C168.9819142 267.13763105 172.57065042 264.81541758 176.18041992 262.40405273 C177.95929433 261.40183387 179.7508613 260.42175165 181.55541992 259.46655273 C184.83355118 257.70378404 188.04542528 255.91019128 191.18041992 253.90405273 C194.13765503 252.01620164 197.15065717 250.3117606 200.24291992 248.65405273 C201.15944336 248.1500293 202.0759668 247.64600586 203.02026367 247.12670898 C204.71287826 246.20403527 206.40862455 245.28647886 208.12231445 244.40356445 C210.20061072 243.3292285 212.25254294 242.21356755 214.30541992 241.09155273 C215.30134155 240.59606934 215.30134155 240.59606934 216.31738281 240.09057617 C218.4996473 238.95188286 218.4996473 238.95188286 221.18041992 236.40405273 C222.87000423 230.22081677 222.32344926 223.1578588 222.30981445 216.79467773 C222.31156677 215.77394165 222.31331909 214.75320557 222.31512451 213.70153809 C222.31949903 210.35235863 222.31662058 207.00323266 222.31323242 203.65405273 C222.31390672 201.31193024 222.31487781 198.96980781 222.31613159 196.62768555 C222.31760261 191.72891572 222.31547318 186.83016418 222.31079102 181.93139648 C222.30509411 175.66724186 222.3083763 169.4031301 222.31436348 163.13897705 C222.31798518 158.30557943 222.3168231 153.47219188 222.31423569 148.63879395 C222.31357087 146.32963048 222.3143792 144.02046609 222.31671524 141.71130371 C222.31926821 138.47865389 222.315364 135.24607249 222.30981445 132.01342773 C222.3128508 130.59640564 222.3128508 130.59640564 222.31594849 129.15075684 C222.88777438 119.06123902 222.88777438 119.06123902 219.25708008 110.36352539 C218.00096924 109.72229736 218.00096924 109.72229736 216.71948242 109.06811523 C215.31424316 108.31667236 215.31424316 108.31667236 213.88061523 107.55004883 C212.86580078 107.04812012 211.85098633 106.54619141 210.80541992 106.02905273 C208.68759977 104.91045804 206.57042086 103.79064851 204.45385742 102.66967773 C203.39263672 102.12118164 202.33141602 101.57268555 201.23803711 101.00756836 C196.89086454 98.72776722 192.66093197 96.2667193 188.43041992 93.77905273 C186.88134365 92.87861966 185.33186574 91.9788772 183.78198242 91.07983398 C182.6435791 90.41781982 182.6435791 90.41781982 181.48217773 89.74243164 C177.59190197 87.48039391 173.69908453 85.22275131 169.80541992 82.96655273 C168.63922119 82.29064087 168.63922119 82.29064087 167.44946289 81.60107422 C161.49874429 78.15659647 155.52914584 74.74593417 149.55541992 71.34155273 C141.54946784 66.77749474 133.58342897 62.15016773 125.64916992 57.46264648 C125.05104492 57.11057129 124.45291992 56.75849609 123.83666992 56.39575195 C122.34079057 55.50007655 120.86833032 54.56556851 119.39916992 53.62670898 C115.42454987 51.43646941 113.29106128 52.70219485 109.64526367 54.81811523 Z M10.18041992 237.40405273 C8.9610548 238.40277721 8.9610548 238.40277721 9.05737209 240.38556767 C9.05829389 241.26219279 9.05921568 242.13881792 9.06016541 243.04200745 C9.05879074 244.04466644 9.05741608 245.04732544 9.05599976 246.08036804 C9.05959503 247.18951065 9.06319031 248.29865326 9.06689453 249.44140625 C9.0667485 250.60222717 9.06660248 251.7630481 9.06645203 252.95904541 C9.06715175 256.81703525 9.07494694 260.67497752 9.08276367 264.53295898 C9.08462764 267.19954002 9.0861008 269.86611837 9.08705139 272.53269958 C9.09016445 278.84734153 9.09837748 285.16196624 9.10840088 291.47660059 C9.11956282 298.66390906 9.12507267 305.85121835 9.13009632 313.03853333 C9.14056012 327.82704863 9.15815906 342.61555038 9.18041992 357.40405273 C13.84402264 356.60804534 17.25359788 354.79764339 21.24291992 352.34155273 C22.74817692 351.43452146 24.25479288 350.52974323 25.76245117 349.62670898 C26.60759277 349.12026855 27.45273438 348.61382812 28.32348633 348.09204102 C31.5534262 346.18366601 34.80639783 344.3176679 38.06713867 342.46264648 C38.97357872 341.94688301 38.97357872 341.94688301 39.89833069 341.42070007 C42.33170883 340.03734333 44.76581243 338.65528692 47.20169067 337.27633667 C54.66718444 333.04839009 62.03181236 328.7023155 69.30737305 324.15795898 C72.83813469 322.00253821 76.45619846 320.05034668 80.10229492 318.09936523 C84.75980839 315.5341865 89.31902406 312.80591962 93.89086914 310.09179688 C98.88235277 307.13830606 103.92901093 304.32854501 109.07885742 301.65795898 C111.12752253 300.43561419 112.58716044 299.16691726 114.18041992 297.40405273 C94.96816217 285.70549974 75.38796125 274.61417248 55.83276367 263.50170898 C44.9384073 257.29917238 34.13993552 250.9372876 23.35620117 244.54467773 C22.18214722 243.85027588 22.18214722 243.85027588 20.984375 243.1418457 C19.47138386 242.24690912 17.9594657 241.35015556 16.44873047 240.45141602 C13.49489527 238.3532042 13.49489527 238.3532042 10.18041992 237.40405273 Z " transform="translate(101.819580078125,-0.404052734375)"/>
</svg>
